<svg xmlns="http://www.w3.org/2000/svg" width="250.909" height="79.813" viewBox="0 0 250.909 79.813">
  <g id="Grupo_343" data-name="Grupo 343" transform="translate(-543.775 -206.491)">
    <g id="Grupo_2" data-name="Grupo 2" transform="translate(544.452 266.328)">
      <path id="Caminho_1" data-name="Caminho 1" d="M556.832,237.569h-9.194l-1.589,4.362h-2.092l7.251-19.259H553.3l7.214,19.259h-2.092Zm-.614-1.66-4-10.891-3.964,10.891Z" transform="translate(-543.957 -222.279)" fill="#535355"/>
      <path id="Caminho_2" data-name="Caminho 2" d="M565.781,225.342a11.3,11.3,0,0,1-.037,13.921,8.138,8.138,0,0,1-6.346,2.669h-7.467V222.673h7.537A8.128,8.128,0,0,1,565.781,225.342ZM564.3,237.893a8.266,8.266,0,0,0,1.839-5.624,8.169,8.169,0,0,0-1.839-5.591,6.214,6.214,0,0,0-4.869-2.129h-5.557v15.507h5.557A6.125,6.125,0,0,0,564.3,237.893Z" transform="translate(-522.25 -222.279)" fill="#535355"/>
      <path id="Caminho_3" data-name="Caminho 3" d="M575.4,222.673l-7.035,19.259h-1.947l-7-19.259h2.092l5.915,16.519,5.881-16.519Z" transform="translate(-501.869 -222.279)" fill="#535355"/>
      <path id="Caminho_4" data-name="Caminho 4" d="M566.823,232.533a10.387,10.387,0,0,1,2.487-7.214,8.7,8.7,0,0,1,6.637-2.743,8.558,8.558,0,0,1,6.6,2.743,10.43,10.43,0,0,1,2.561,7.214,10.1,10.1,0,0,1-2.524,7.247,9.409,9.409,0,0,1-13.273,0A10.417,10.417,0,0,1,566.823,232.533Zm9.123-8.081a6.741,6.741,0,0,0-5.159,2.312,8.345,8.345,0,0,0-1.947,5.769,8.639,8.639,0,0,0,1.947,5.877,7.145,7.145,0,0,0,10.314,0,9.835,9.835,0,0,0,0-11.758A6.417,6.417,0,0,0,575.946,224.452Z" transform="translate(-481.712 -222.543)" fill="#535355"/>
      <path id="Caminho_5" data-name="Caminho 5" d="M585.193,222.567a13.169,13.169,0,0,1,7.284,2.6l-.83,1.623a11.866,11.866,0,0,0-6.417-2.345,7.614,7.614,0,0,0-5.7,2.233,9.107,9.107,0,0,0,0,11.792,7.62,7.62,0,0,0,5.7,2.237,8.615,8.615,0,0,0,5.662-2.092v-6.238h1.839v7.035a10,10,0,0,1-3.462,2.271,10.973,10.973,0,0,1-4.147.864,9.425,9.425,0,0,1-7.068-2.74,11.182,11.182,0,0,1,.034-14.461A9.594,9.594,0,0,1,585.193,222.567Z" transform="translate(-458.312 -222.567)" fill="#535355"/>
      <path id="Caminho_6" data-name="Caminho 6" d="M596.319,237.569h-9.194l-1.589,4.362h-2.088l7.247-19.259h2.092L600,241.932h-2.092Zm-.61-1.66L591.7,225.018l-3.964,10.891Z" transform="translate(-436.458 -222.279)" fill="#535355"/>
      <path id="Caminho_7" data-name="Caminho 7" d="M605.268,225.342a9.839,9.839,0,0,1,2.382,6.927,9.938,9.938,0,0,1-2.416,6.994,8.152,8.152,0,0,1-6.35,2.669h-7.463V222.673h7.537A8.125,8.125,0,0,1,605.268,225.342Zm-1.477,12.551a8.268,8.268,0,0,0,1.839-5.624,8.171,8.171,0,0,0-1.839-5.591,6.2,6.2,0,0,0-4.869-2.129h-5.554v15.507h5.554A6.115,6.115,0,0,0,603.79,237.893Z" transform="translate(-414.751 -222.279)" fill="#535355"/>
      <path id="Caminho_8" data-name="Caminho 8" d="M599.383,232.533a10.386,10.386,0,0,1,2.487-7.214,8.7,8.7,0,0,1,6.636-2.743,8.552,8.552,0,0,1,6.6,2.743,10.4,10.4,0,0,1,2.561,7.214,10.085,10.085,0,0,1-2.523,7.247,9.408,9.408,0,0,1-13.273,0A10.415,10.415,0,0,1,599.383,232.533Zm9.123-8.081a6.727,6.727,0,0,0-5.155,2.312,8.327,8.327,0,0,0-1.947,5.769,8.621,8.621,0,0,0,1.947,5.877,7.145,7.145,0,0,0,10.314,0,9.851,9.851,0,0,0,0-11.758A6.43,6.43,0,0,0,608.506,224.452Z" transform="translate(-393.077 -222.543)" fill="#535355"/>
      <path id="Caminho_9" data-name="Caminho 9" d="M608.3,238.974a13.2,13.2,0,0,0,6.238,1.731c2.743,0,4.511-1.44,4.511-3.678a2.493,2.493,0,0,0-1.407-2.345,11.691,11.691,0,0,0-3.067-1.407l-1.515-.54c-2.922-1.046-4.723-2.524-4.723-5.155a4.481,4.481,0,0,1,1.7-3.607,6.869,6.869,0,0,1,4.5-1.407,14.585,14.585,0,0,1,5.881,1.548l-.759,1.623a11.284,11.284,0,0,0-5.01-1.3c-2.6,0-4.292,1.187-4.292,3.138,0,1.764,1.225,2.632,3.5,3.462l1.552.5a14.281,14.281,0,0,1,3.93,1.95,4.028,4.028,0,0,1,1.768,3.5c0,3.428-2.524,5.554-6.566,5.554a15.64,15.64,0,0,1-6.994-1.876Z" transform="translate(-370.87 -222.567)" fill="#535355"/>
    </g>
    <g id="Grupo_3" data-name="Grupo 3" transform="translate(543.775 206.491)">
      <path id="Caminho_10" data-name="Caminho 10" d="M546.366,236.651a24.945,24.945,0,0,0,12.51,3.666c4.173,0,6.763-2.01,6.763-5.248,0-2.877-2.375-4.1-6.979-5.751l-3.521-1.15c-6.4-2.018-9.566-5.684-9.566-10.932-.142-9.708,11.937-14.383,25.6-7.407l-2.587,5.319a21.829,21.829,0,0,0-9.637-2.587c-4.1,0-6.689,1.8-6.689,4.675,0,2.661,1.869,4.027,5.539,5.248l3.521,1.08c6.975,2.3,11.148,5.68,11.148,11.219,0,7.333-5.177,11.721-13.664,11.721a30.518,30.518,0,0,1-15.03-4.173Z" transform="translate(-543.775 -206.491)" fill="#535355"/>
      <path id="Caminho_11" data-name="Caminho 11" d="M578.418,239.056V245.1H554.756V206.77h23.085v6.037H561.229v10.355h15.246v5.755H561.229v10.139Z" transform="translate(-513.883 -205.733)" fill="#535355"/>
      <path id="Caminho_12" data-name="Caminho 12" d="M564.449,206.77h14.6a12.76,12.76,0,0,1,9.421,3.521,11.828,11.828,0,0,1,3.6,9.064c0,5.319-2.59,9.562-6.979,11.36L593.14,245.1h-7.117L578.9,232.152h-7.91V245.1h-6.544Zm14.237,19.344c4.1,0,6.689-2.661,6.689-6.759a6.306,6.306,0,0,0-6.689-6.547h-7.694v13.307Z" transform="translate(-487.497 -205.733)" fill="#535355"/>
      <path id="Caminho_13" data-name="Caminho 13" d="M575.277,232.116V206.731h6.544v24.451c0,4.746,3.309,8.055,8.2,8.055s8.2-3.309,8.2-8.055V206.731h6.473v25.385a13.222,13.222,0,0,1-4.1,9.994c-2.661,2.52-6.186,3.741-10.571,3.741s-7.984-1.221-10.645-3.741A13.221,13.221,0,0,1,575.277,232.116Z" transform="translate(-458.021 -205.839)" fill="#535355"/>
      <path id="Caminho_14" data-name="Caminho 14" d="M586.931,206.77h14.6a12.76,12.76,0,0,1,9.421,3.521,11.814,11.814,0,0,1,3.6,9.064c0,5.319-2.591,9.562-6.975,11.36l8.055,14.383H608.5l-7.12-12.946h-7.91V245.1h-6.543Zm14.237,19.344c4.1,0,6.689-2.661,6.689-6.759a6.306,6.306,0,0,0-6.689-6.547h-7.694v13.307Z" transform="translate(-426.297 -205.733)" fill="#535355"/>
    </g>
    <g id="Grupo_4" data-name="Grupo 4" transform="translate(752.768 231.399)">
      <path id="Caminho_15" data-name="Caminho 15" d="M610.951,213.183H599.923V227.4h14.219V216.375Z" transform="translate(-599.923 -213.183)" fill="#e40046"/>
    </g>
  </g>
</svg>
